# xmcd CD database file
#
# Track frame offsets:
#        150
#        19060
#        32558
#        46083
#        59413
#        74405
#        88378
#        102108
#        113540
#        126413
#        139228
#        150875
#        163953
#        176290
#        188260
#        201803
#        216010
#        229320
#        242435
#        254343
#
# Disc length: 3542 seconds
#
# Revision: 0
# Processed by: cddbd v1.5.2PL0 Copyright (c) Steve Scherf et al.
# Submitted via: CUERipper 2.1.1
#
DISCID=0b0dd414
DTITLE=Various Artist - Back to the Blues
DYEAR=1996
DGENRE=Blues
TTITLE0=Leadbelly - Easy Rider
TTITLE1=Bukka White - Black Train Blues
TTITLE2=Robert Johnson - (I Believe I'll) Dust My Broom
TTITLE3=Leroy Carr - Mean Mistreater Mama
TTITLE4=Lonnie Johnson - Four Hands Are Better Than Two
TTITLE5=Blind Willie McTell - Georgia Rag
TTITLE6=Blind Boy Fuller - My Brownskin Sugar Plum
TTITLE7=Robert Johnson - Walkin' Blues
TTITLE8=Big Joe Turner - Sun Risin' Blues
TTITLE9=Champion Jack Dupree - Warehouseman Blues
TTITLE10=Sonny Boy Williamson - Got The Bottle Up And Go
TTITLE11=Brownie McGhee - Born For Bad Luck
TTITLE12=Big Joe Turner - Rebecca
TTITLE13=Brownie McGhee - I'm Calling Daisy
TTITLE14=Sonny Boy Williamson - Sugar Mama Blues
TTITLE15=Blind Willie McTell - Stomp Down Rider
TTITLE16=Lonnie Johnson - Mean Old Bed Bug Blues
TTITLE17=Bukka White - Strange Place Blues
TTITLE18=Arthur "Big Boy" Crudup - Mean Old 'Frisco Blues
TTITLE19=Leadbelly - Rock Island Line
EXTD=
EXTT0=
EXTT1=
EXTT2=
EXTT3=
EXTT4=
EXTT5=
EXTT6=
EXTT7=
EXTT8=
EXTT9=
EXTT10=
EXTT11=
EXTT12=
EXTT13=
EXTT14=
EXTT15=
EXTT16=
EXTT17=
EXTT18=
EXTT19=
PLAYORDER=
